<?xml version="1.0" standalone="no"?>
<!DOCTYPE svg PUBLIC "-//W3C//DTD SVG 1.1//EN" "http://www.w3.org/Graphics/SVG/1.1/DTD/svg11.dtd" >
<svg xmlns="http://www.w3.org/2000/svg" xmlns:xlink="http://www.w3.org/1999/xlink" version="1.1" viewBox="-10 0 2020 2000">
  <g transform="matrix(1 0 0 -1 0 2000)">
   <path fill="currentColor"
d="M250 1500v375h-125v125h250v-500h-125zM625 1750h1375v-125h-1375v125zM625 500h1375v-125h-1375v125zM625 1125h1375v-125h-1375v125zM337.5 425c62.5 -12.5 112.5 -62.5 112.5 -137.5c0 -100 -75 -162.5 -200 -162.5c-75 0 -150 25 -200 62.5l62.5 125
c37.5 -50 75 -75 125 -75c37.5 0 50 12.5 50 37.5s-12.5 37.5 -50 37.5h-87.5v87.5l100 87.5h-175v137.5h350v-87.5l-112.5 -100zM450 1175c0 -62.5 -37.5 -112.5 -100 -162.5l-75 -75h175v-125h-387.5v100l175 175c25 25 37.5 50 37.5 62.5c0 12.5 -12.5 25 -37.5 25
c-37.5 0 -87.5 -25 -137.5 -62.5l-50 125c75 50 137.5 75 225 75s175 -50 175 -137.5z" />
  </g>

</svg>
