<?xml version="1.0" standalone="no"?>
<!DOCTYPE svg PUBLIC "-//W3C//DTD SVG 1.1//EN" "http://www.w3.org/Graphics/SVG/1.1/DTD/svg11.dtd" >
<svg xmlns="http://www.w3.org/2000/svg" xmlns:xlink="http://www.w3.org/1999/xlink" version="1.1" viewBox="-10 0 2033 2000">
  <g transform="matrix(1 0 0 -1 0 2000)">
   <path fill="currentColor"
d="M625 1750h1375v-125h-1375v125zM625 1125h1375v-125h-1375v125zM1700 750h-775c-162.5 0 -300 -137.5 -300 -300v-37.5c0 -150 137.5 -287.5 300 -287.5h787.5c162.5 0 300 137.5 300 300v37.5c-12.5 150 -150 287.5 -312.5 287.5zM1500 375h-125v-125h-125v125h-125v125
h125v125h125v-125h125v-125zM250 1500v375h-125v125h250v-500h-125zM450 1175c0 -62.5 -37.5 -112.5 -100 -162.5l-75 -75h175v-125h-387.5v100l175 175c25 25 37.5 50 37.5 62.5c0 12.5 -12.5 25 -37.5 25c-37.5 0 -87.5 -25 -137.5 -62.5l-50 125c75 50 137.5 75 225 75
s175 -50 175 -137.5z" />
  </g>

</svg>
